<svg width="32" height="32" viewBox="0 0 32 32" fill="none" xmlns="http://www.w3.org/2000/svg">
<g id="darkModeSwitch3">
<g id="moon">
<path id="base" d="M16 31C24.2843 31 31 24.2843 31 16C31 7.71573 24.2843 1 16 1C7.71573 1 1 7.71573 1 16C1 24.2843 7.71573 31 16 31Z" fill="#191970"/>
<path id="Subtract" fill-rule="evenodd" clip-rule="evenodd" d="M29 16C29 23.1797 23.1797 29 16 29C8.8203 29 3 23.1797 3 16C3 15.184 3.07518 14.3856 3.219 13.6112C4.10162 17.4614 7.54876 20.3334 11.6667 20.3334C16.4531 20.3334 20.3333 16.4532 20.3333 11.6667C20.3333 7.54876 17.4614 4.10162 13.6111 3.21901C14.3855 3.07519 15.184 3 16 3C23.1797 3 29 8.8203 29 16Z" fill="#D9D9D9"/>
</g>
<g id="sun">
<path id="base_2" d="M16 32C24.8366 32 32 24.8366 32 16C32 7.16344 24.8366 0 16 0C7.16344 0 0 7.16344 0 16C0 24.8366 7.16344 32 16 32Z" fill="white"/>
<path id="Subtract_2" fill-rule="evenodd" clip-rule="evenodd" d="M16 29C23.1797 29 29 23.1797 29 16C29 8.8203 23.1797 3 16 3C8.8203 3 3 8.8203 3 16C3 23.1797 8.8203 29 16 29ZM15.5184 3.463C15.7945 3.463 16.0184 3.68686 16.0184 3.963V6.8518C16.0184 7.12794 15.7945 7.3518 15.5184 7.3518C15.2423 7.3518 15.0184 7.12794 15.0184 6.8518V3.963C15.0184 3.68686 15.2423 3.463 15.5184 3.463ZM16.0184 25.1481C16.0184 24.872 15.7945 24.6481 15.5184 24.6481C15.2423 24.6481 15.0184 24.872 15.0184 25.1481V28.037C15.0184 28.3131 15.2423 28.537 15.5184 28.537C15.7945 28.537 16.0184 28.3131 16.0184 28.037V25.1481ZM24.6481 15.5185C24.6481 15.2424 24.872 15.0185 25.1481 15.0185H28.0369C28.313 15.0185 28.5369 15.2424 28.5369 15.5185C28.5369 15.7946 28.313 16.0185 28.0369 16.0185H25.1481C24.872 16.0185 24.6481 15.7946 24.6481 15.5185ZM3.96289 15.0185C3.68675 15.0185 3.46289 15.2424 3.46289 15.5185C3.46289 15.7946 3.68675 16.0185 3.96289 16.0185H6.85179C7.12793 16.0185 7.35179 15.7946 7.35179 15.5185C7.35179 15.2424 7.12793 15.0185 6.85179 15.0185H3.96289ZM6.97964 6.97975C7.1749 6.78449 7.49148 6.78449 7.68674 6.97975L9.72954 9.02254C9.92481 9.21781 9.92481 9.53439 9.72955 9.72965C9.53428 9.92491 9.2177 9.92491 9.02244 9.72965L6.97964 7.68686C6.78438 7.49159 6.78438 7.17501 6.97964 6.97975ZM22.2702 22.2704C22.4655 22.0751 22.7821 22.0751 22.9773 22.2703L25.0201 24.313C25.2154 24.5083 25.2154 24.8249 25.0202 25.0201C24.8249 25.2154 24.5083 25.2154 24.313 25.0202L22.2702 22.9775C22.075 22.7822 22.075 22.4656 22.2702 22.2704ZM24.1739 7.20545C24.3692 7.01019 24.3692 6.69361 24.1739 6.49834C23.9787 6.30308 23.6621 6.30308 23.4668 6.49835L21.4241 8.54105C21.2289 8.73631 21.2289 9.05289 21.4241 9.24815C21.6194 9.44342 21.936 9.44342 22.1312 9.24815L24.1739 7.20545ZM9.24804 22.1314C9.44331 21.9361 9.44331 21.6195 9.24804 21.4242C9.05278 21.229 8.7362 21.229 8.54094 21.4242L6.49814 23.467C6.30288 23.6623 6.30288 23.9789 6.49814 24.1742C6.6934 24.3694 7.00998 24.3694 7.20525 24.1742L9.24804 22.1314Z" fill="#FFE484" fill-opacity="0.7"/>
<path id="sunCore" d="M16.0001 24.1852C20.5207 24.1852 24.1853 20.5205 24.1853 16C24.1853 11.4794 20.5207 7.81482 16.0001 7.81482C11.4796 7.81482 7.81494 11.4794 7.81494 16C7.81494 20.5205 11.4796 24.1852 16.0001 24.1852Z" fill="#FDB813"/>
</g>
</g>
</svg>
