<svg width="100" height="100" viewBox="0 0 227 227" fill="none" xmlns="http://www.w3.org/2000/svg">
<g id="Logo">
<path id="base" d="M113.5 227L5.55508 148.573L46.7864 21.6766L180.214 21.6766L221.445 148.573L113.5 227Z" fill="black"/>
<path id="logo" fill-rule="evenodd" clip-rule="evenodd" d="M114.211 152.217L79.5287 124.753L114.416 97.3104L149.097 124.591L114.211 152.217ZM114.211 180.991L114.204 181L48.6896 129.12L48.6515 129.168L32.5536 116.343L31.4038 115.432L31.4065 115.429L31 115.105L65.92 71.2752L85.6807 46L86.09 46.32L86.0927 46.3165L87.2679 47.2409L103.461 59.9007L103.423 59.9487L114.416 68.596L125.409 59.9487L125.371 59.9007L141.563 47.2415L142.739 46.3165L142.742 46.32L143.151 46L184.44 98.8105L197.422 115.105L197.015 115.429L197.018 115.432L195.868 116.343L179.77 129.168L179.732 129.12L114.218 181L114.211 180.991ZM138.989 77.9814L132.668 82.9532L160.211 104.619L138.989 77.9814ZM68.3043 104.868L83.6361 85.2576L89.5913 77.783L96.164 82.9532L68.3043 104.868Z" fill="white"/>
</g>
</svg>
